<?xml version="1.0" standalone="no"?>
<!DOCTYPE svg PUBLIC "-//W3C//DTD SVG 20010904//EN"
 "http://www.w3.org/TR/2001/REC-SVG-20010904/DTD/svg10.dtd">
<svg version="1.0" xmlns="http://www.w3.org/2000/svg"
 width="442.000000pt" height="441.000000pt" viewBox="0 0 442.000000 441.000000"
 preserveAspectRatio="xMidYMid meet">

<g transform="translate(0.000000,441.000000) scale(0.100000,-0.100000)"
fill="#000000" stroke="none">
<path d="M1615 3258 c-2 -7 -67 -278 -145 -603 -78 -324 -143 -597 -146 -607
-4 -12 44 -47 197 -145 217 -137 289 -195 318 -252 11 -20 26 -76 36 -126 9
-49 28 -114 42 -145 36 -76 139 -175 232 -223 l73 -37 71 37 c98 52 189 140
227 217 17 35 37 99 45 144 29 165 50 187 336 372 191 124 220 145 215 164 -3
11 -69 287 -147 611 -77 325 -145 594 -149 598 -4 5 -97 -70 -205 -167 l-197
-176 -196 0 -197 0 -195 175 c-107 96 -199 174 -203 175 -4 0 -9 -6 -12 -12z
m202 -261 c76 -68 149 -131 163 -140 21 -15 53 -17 235 -17 146 1 216 4 231
13 12 7 87 68 168 137 81 69 150 126 154 128 7 2 254 -1010 248 -1015 -2 -2
-76 175 -166 392 -89 217 -166 395 -169 395 -4 0 -49 -43 -101 -95 l-94 -94
-131 -3 -130 -3 -3 -737 c-2 -585 -5 -738 -15 -738 -17 0 -107 62 -146 100
-53 53 -81 113 -102 217 -22 111 -44 162 -94 221 -31 36 -167 131 -382 267
-35 22 -63 45 -63 50 -1 24 246 1045 252 1045 4 0 70 -55 145 -123z"/>
</g>
</svg>
